<mxfile host="app.diagrams.net" modified="2024-04-05T16:07:18.975Z" agent="Mozilla/5.0 (Windows NT 10.0; Win64; x64; rv:124.0) Gecko/20100101 Firefox/124.0" version="24.2.2" etag="EAg0-ur6ztKEwQBMZr69" type="github">
  <diagram name="Page-1" id="4DVArmQ2FKZMZtiGT3NC">
    <mxGraphModel>
      <root>
        <mxCell id="0" />
        <mxCell id="1" parent="0" />
      </root>
    </mxGraphModel>
  </diagram>
</mxfile>
